<svg width="29" height="14" viewBox="0 0 29 14" fill="none" xmlns="http://www.w3.org/2000/svg">
<path d="M8.195 9.695V11H0.575V0.499999H7.985V1.805H2.075V5.03H7.34V6.305H2.075V9.695H8.195ZM14.6588 2.975C15.6688 2.975 16.4688 3.27 17.0588 3.86C17.6588 4.44 17.9588 5.295 17.9588 6.425V11H16.5188V6.59C16.5188 5.82 16.3338 5.24 15.9638 4.85C15.5938 4.46 15.0638 4.265 14.3738 4.265C13.5938 4.265 12.9788 4.495 12.5288 4.955C12.0788 5.405 11.8538 6.055 11.8538 6.905V11H10.4138V3.05H11.7938V4.25C12.0838 3.84 12.4738 3.525 12.9638 3.305C13.4638 3.085 14.0288 2.975 14.6588 2.975ZM28.2727 3.05V9.92C28.2727 11.31 27.9277 12.335 27.2377 12.995C26.5477 13.665 25.5177 14 24.1477 14C23.3977 14 22.6827 13.895 22.0027 13.685C21.3227 13.485 20.7727 13.195 20.3527 12.815L21.0427 11.705C21.4127 12.025 21.8677 12.275 22.4077 12.455C22.9577 12.645 23.5227 12.74 24.1027 12.74C25.0327 12.74 25.7177 12.52 26.1577 12.08C26.6077 11.64 26.8327 10.97 26.8327 10.07V9.44C26.4927 9.85 26.0727 10.16 25.5727 10.37C25.0827 10.57 24.5477 10.67 23.9677 10.67C23.2077 10.67 22.5177 10.51 21.8977 10.19C21.2877 9.86 20.8077 9.405 20.4577 8.825C20.1077 8.235 19.9327 7.565 19.9327 6.815C19.9327 6.065 20.1077 5.4 20.4577 4.82C20.8077 4.23 21.2877 3.775 21.8977 3.455C22.5177 3.135 23.2077 2.975 23.9677 2.975C24.5677 2.975 25.1227 3.085 25.6327 3.305C26.1527 3.525 26.5777 3.85 26.9077 4.28V3.05H28.2727ZM24.1327 9.41C24.6527 9.41 25.1177 9.3 25.5277 9.08C25.9477 8.86 26.2727 8.555 26.5027 8.165C26.7427 7.765 26.8627 7.315 26.8627 6.815C26.8627 6.045 26.6077 5.425 26.0977 4.955C25.5877 4.475 24.9327 4.235 24.1327 4.235C23.3227 4.235 22.6627 4.475 22.1527 4.955C21.6427 5.425 21.3877 6.045 21.3877 6.815C21.3877 7.315 21.5027 7.765 21.7327 8.165C21.9727 8.555 22.2977 8.86 22.7077 9.08C23.1277 9.3 23.6027 9.41 24.1327 9.41Z" fill="#101010"/>
</svg>
