<svg width="26" height="12" viewBox="0 0 26 12" fill="none" xmlns="http://www.w3.org/2000/svg">
<path d="M4.295 6.38H2.105V11H0.635V0.499999H2.105V5.06H4.325L7.625 0.499999H9.23L5.48 5.585L9.41 11H7.7L4.295 6.38ZM13.645 2.975C14.745 2.975 15.585 3.245 16.165 3.785C16.755 4.325 17.05 5.13 17.05 6.2V11H15.685V9.95C15.445 10.32 15.1 10.605 14.65 10.805C14.21 10.995 13.685 11.09 13.075 11.09C12.185 11.09 11.47 10.875 10.93 10.445C10.4 10.015 10.135 9.45 10.135 8.75C10.135 8.05 10.39 7.49 10.9 7.07C11.41 6.64 12.22 6.425 13.33 6.425H15.61V6.14C15.61 5.52 15.43 5.045 15.07 4.715C14.71 4.385 14.18 4.22 13.48 4.22C13.01 4.22 12.55 4.3 12.1 4.46C11.65 4.61 11.27 4.815 10.96 5.075L10.36 3.995C10.77 3.665 11.26 3.415 11.83 3.245C12.4 3.065 13.005 2.975 13.645 2.975ZM13.315 9.98C13.865 9.98 14.34 9.86 14.74 9.62C15.14 9.37 15.43 9.02 15.61 8.57V7.46H13.39C12.17 7.46 11.56 7.87 11.56 8.69C11.56 9.09 11.715 9.405 12.025 9.635C12.335 9.865 12.765 9.98 13.315 9.98ZM23.8162 6.86C24.3462 7 24.7562 7.225 25.0462 7.535C25.3362 7.845 25.4812 8.23 25.4812 8.69C25.4812 9.16 25.3212 9.58 25.0012 9.95C24.6812 10.31 24.2362 10.595 23.6662 10.805C23.1062 11.005 22.4762 11.105 21.7762 11.105C21.1862 11.105 20.6062 11.03 20.0362 10.88C19.4762 10.72 18.9762 10.495 18.5362 10.205L18.9712 9.11C19.3512 9.35 19.7862 9.54 20.2762 9.68C20.7662 9.81 21.2612 9.875 21.7612 9.875C22.4412 9.875 22.9812 9.76 23.3812 9.53C23.7912 9.29 23.9962 8.97 23.9962 8.57C23.9962 8.2 23.8312 7.915 23.5012 7.715C23.1812 7.515 22.7262 7.415 22.1362 7.415H20.6812V6.38H22.0312C22.5712 6.38 22.9962 6.285 23.3062 6.095C23.6162 5.905 23.7712 5.645 23.7712 5.315C23.7712 4.955 23.5862 4.675 23.2162 4.475C22.8562 4.275 22.3662 4.175 21.7462 4.175C20.9562 4.175 20.1212 4.38 19.2412 4.79L18.8512 3.68C19.8212 3.19 20.8362 2.945 21.8962 2.945C22.5362 2.945 23.1112 3.035 23.6212 3.215C24.1312 3.395 24.5312 3.65 24.8212 3.98C25.1112 4.31 25.2562 4.685 25.2562 5.105C25.2562 5.495 25.1262 5.845 24.8662 6.155C24.6062 6.465 24.2562 6.7 23.8162 6.86Z" fill="#101010"/>
</svg>
