<svg width="20" height="20" viewBox="0 0 20 20" fill="none" xmlns="http://www.w3.org/2000/svg">
<g clip-path="url(#clip0_422_339)">
<path d="M1.6665 10C1.6665 14.6025 5.39734 18.3333 9.99984 18.3333C14.6023 18.3333 18.3332 14.6025 18.3332 10C18.3332 5.3975 14.6023 1.66667 9.99984 1.66667C5.39734 1.66667 1.6665 5.3975 1.6665 10Z" stroke="#838383" stroke-width="1.5" stroke-linecap="round" stroke-linejoin="round"/>
<path d="M10.833 1.70834C10.833 1.70834 13.333 5 13.333 10C13.333 15 10.833 18.2917 10.833 18.2917" stroke="#838383" stroke-width="1.5" stroke-linecap="round" stroke-linejoin="round"/>
<path d="M9.1665 18.2917C9.1665 18.2917 6.6665 15 6.6665 10C6.6665 5 9.1665 1.70834 9.1665 1.70834" stroke="#838383" stroke-width="1.5" stroke-linecap="round" stroke-linejoin="round"/>
<path d="M2.19141 12.9167H17.8081" stroke="#838383" stroke-width="1.5" stroke-linecap="round" stroke-linejoin="round"/>
<path d="M2.19141 7.08334H17.8081" stroke="#838383" stroke-width="1.5" stroke-linecap="round" stroke-linejoin="round"/>
</g>
<defs>
<clipPath id="clip0_422_339">
<rect width="20" height="20" fill="white"/>
</clipPath>
</defs>
</svg>
