<svg width="25" height="15" viewBox="0 0 25 15" fill="none" xmlns="http://www.w3.org/2000/svg">
<path d="M3.77 0.289999C5.15 0.289999 6.155 0.589999 6.785 1.19C7.425 1.78 7.745 2.595 7.745 3.635C7.745 4.105 7.675 4.555 7.535 4.985C7.395 5.405 7.16 5.785 6.83 6.125C6.51 6.455 6.085 6.715 5.555 6.905C5.025 7.095 4.37 7.19 3.59 7.19H2.615V11H0.35V0.289999H3.77ZM3.65 2.15H2.615V5.33H3.365C3.795 5.33 4.165 5.275 4.475 5.165C4.785 5.055 5.025 4.88 5.195 4.64C5.365 4.4 5.45 4.09 5.45 3.71C5.45 3.18 5.305 2.79 5.015 2.54C4.725 2.28 4.27 2.15 3.65 2.15ZM8.41895 2.81H10.8639L12.4089 7.415C12.4589 7.565 12.4989 7.715 12.5289 7.865C12.5689 8.015 12.5989 8.17 12.6189 8.33C12.6489 8.49 12.6689 8.66 12.6789 8.84H12.7239C12.7539 8.58 12.7939 8.335 12.8439 8.105C12.9039 7.865 12.9689 7.635 13.0389 7.415L14.5539 2.81H16.9539L13.4889 12.05C13.2789 12.61 13.0039 13.08 12.6639 13.46C12.3339 13.84 11.9489 14.125 11.5089 14.315C11.0689 14.505 10.5889 14.6 10.0689 14.6C9.81895 14.6 9.59895 14.585 9.40895 14.555C9.22895 14.535 9.06895 14.51 8.92895 14.48V12.71C9.03895 12.73 9.16895 12.75 9.31895 12.77C9.47895 12.79 9.64395 12.8 9.81395 12.8C10.1239 12.8 10.3889 12.735 10.6089 12.605C10.8389 12.475 11.0289 12.295 11.1789 12.065C11.3289 11.845 11.4489 11.605 11.5389 11.345L11.6739 10.94L8.41895 2.81ZM21.459 11.15C20.649 11.15 19.959 11.005 19.389 10.715C18.819 10.415 18.384 9.955 18.084 9.335C17.784 8.715 17.634 7.92 17.634 6.95C17.634 5.95 17.804 5.135 18.144 4.505C18.484 3.875 18.954 3.41 19.554 3.11C20.164 2.81 20.864 2.66 21.654 2.66C22.214 2.66 22.699 2.715 23.109 2.825C23.529 2.935 23.894 3.065 24.204 3.215L23.544 4.94C23.194 4.8 22.864 4.685 22.554 4.595C22.254 4.505 21.954 4.46 21.654 4.46C21.264 4.46 20.939 4.555 20.679 4.745C20.419 4.925 20.224 5.2 20.094 5.57C19.974 5.93 19.914 6.385 19.914 6.935C19.914 7.475 19.979 7.925 20.109 8.285C20.249 8.635 20.449 8.9 20.709 9.08C20.969 9.25 21.284 9.335 21.654 9.335C22.124 9.335 22.539 9.275 22.899 9.155C23.259 9.025 23.609 8.85 23.949 8.63V10.535C23.609 10.755 23.249 10.91 22.869 11C22.499 11.1 22.029 11.15 21.459 11.15Z" fill="#FFA542"/>
</svg>
